<svg height="487pt" viewBox="0 -95 487.509 487" width="487pt" xmlns="http://www.w3.org/2000/svg"><path fill="#fff" d="m361.839844 70.949219h-235.601563c-2.621093 11.296875-8.886719 21.417969-17.835937 28.800781-9.808594 8.191406-22.578125 13.320312-37.324219 15.054688v66.914062c29.132813 3.4375 49.929687 20.003906 55.210937 43.847656h234.976563c2.621094-11.296875 8.890625-21.417968 17.835937-28.796875 9.808594-8.191406 22.578126-13.320312 37.324219-15.054687v-66.898438c-32.148437-3.726562-49.773437-22.9375-54.585937-43.867187zm-118.085938 137.445312c-33.214844 0-60.140625-26.925781-60.140625-60.140625s26.925781-60.140625 60.140625-60.140625 60.140625 26.925781 60.140625 60.140625c-.035156 33.199219-26.941406 60.105469-60.140625 60.140625zm0 0"/><path fill="#fff" d="m283.894531 148.253906c0 22.167969-17.972656 40.140625-40.140625 40.140625-22.167968 0-40.140625-17.972656-40.140625-40.140625 0-22.167968 17.972657-40.140625 40.140625-40.140625 22.167969 0 40.140625 17.972657 40.140625 40.140625zm0 0"/><path fill="#fff" d="m446.34375.253906h-405.175781c-22.726563.027344-41.1406252 18.441406-41.167969 41.167969v213.664063c.0273438 22.726562 18.441406 41.144531 41.167969 41.167968h405.175781c22.722656-.023437 41.140625-18.441406 41.164062-41.167968v-213.664063c-.023437-22.726563-18.441406-41.140625-41.164062-41.167969zm-9.917969 190.808594c0 5.460938-4.378906 9.914062-9.839843 10-27.359376.441406-45.671876 14.164062-46.644532 34.96875-.25 5.332031-4.648437 9.53125-9.988281 9.53125h-252.398437c-5.347657 0-9.746094-4.203125-9.992188-9.542969-.964844-21.113281-18.835938-34.507812-46.644531-34.957031-5.457031-.085938-9.839844-4.539062-9.839844-10v-85.617188c0-5.460937 4.382813-9.910156 9.839844-10 27.363281-.4375 45.671875-14.164062 46.648437-34.964843.25-5.332031 4.648438-9.527344 9.988282-9.527344h252.964843c5.339844 0 9.738281 4.199219 9.988281 9.535156.972657 20.804688 19.0625 34.527344 46.078126 34.964844 5.460937.085937 9.839843 4.539063 9.839843 10v85.617187zm0 0"/></svg>